<svg height="40" viewBox="0 0 112 125" version="1.1" xmlns="http://www.w3.org/2000/svg" xmlns:xlink="http://www.w3.org/1999/xlink" xml:space="preserve" xmlns:serif="http://www.serif.com/" style="fill-rule:evenodd;clip-rule:evenodd;stroke-linejoin:round;stroke-miterlimit:2;">
    <g transform="matrix(1,0,0,1,-370.098,-163.094)">
        <path d="M382.142,210.09L382.142,163.094L481.521,163.094L481.521,242.538L413.162,287.315L370.158,287.348L370.098,210.099L382.142,210.09ZM419.221,245.015C418.267,227.793 410.404,219.286 397.878,216.662L398.119,195.973C406.109,195.112 413.609,195.893 419.221,202.976L419.221,185.514L441.116,185.514L441.116,202.976C446.729,195.893 454.228,195.112 462.219,195.973L462.46,216.662C449.934,219.286 442.071,227.793 441.116,245.015L441.116,248.799L419.221,248.799L419.221,245.015Z" style="fill:white;"/>
    </g>
</svg>
